<svg width="24" height="24" viewBox="0 0 24 24" fill="none" xmlns="http://www.w3.org/2000/svg">
<path d="M5.72202 5.72159C3.64218 7.80144 2.59499 10.4377 2.06577 12.5316L11.4689 21.9328C13.5628 21.4055 16.1991 20.3583 18.2789 18.2766C20.3587 16.1949 21.4059 13.5605 21.9351 11.4666L12.532 2.06722C10.4381 2.59456 7.80186 3.64175 5.72202 5.72159ZM14.0934 8.85941L15.1411 7.81456C15.2818 7.68691 15.4662 7.61828 15.6561 7.6229C15.846 7.62751 16.0268 7.705 16.1612 7.83933C16.2955 7.97365 16.373 8.1545 16.3776 8.34441C16.3822 8.53432 16.3136 8.71872 16.1859 8.85941L15.1411 9.90706L15.6642 10.4307C15.8029 10.5694 15.8809 10.7576 15.8809 10.9538C15.8809 11.15 15.8029 11.3382 15.6642 11.4769C15.5255 11.6156 15.3373 11.6936 15.1411 11.6936C14.9449 11.6936 14.7567 11.6156 14.618 11.4769L14.0948 10.9538L13.0467 12L13.5698 12.5232C13.7086 12.6619 13.7865 12.8501 13.7865 13.0463C13.7865 13.2425 13.7086 13.4307 13.5698 13.5694C13.4311 13.7081 13.2429 13.7861 13.0467 13.7861C12.8505 13.7861 12.6623 13.7081 12.5236 13.5694L12.0005 13.0463L10.9542 14.093L11.4773 14.6161C11.546 14.6848 11.6005 14.7664 11.6377 14.8561C11.6749 14.9459 11.694 15.0421 11.694 15.1392C11.694 15.2364 11.6749 15.3326 11.6377 15.4224C11.6005 15.5121 11.546 15.5937 11.4773 15.6624C11.4086 15.7311 11.3271 15.7856 11.2373 15.8227C11.1476 15.8599 11.0514 15.8791 10.9542 15.8791C10.8571 15.8791 10.7609 15.8599 10.6711 15.8227C10.5813 15.7856 10.4998 15.7311 10.4311 15.6624L9.90749 15.1407L8.85983 16.1855C8.71915 16.3131 8.53475 16.3818 8.34484 16.3772C8.15493 16.3726 7.97408 16.2951 7.83975 16.1607C7.70543 16.0264 7.62793 15.8456 7.62332 15.6556C7.61871 15.4657 7.68734 15.2813 7.81499 15.1407L8.85983 14.093L8.33671 13.5694C8.19797 13.4307 8.12002 13.2425 8.12002 13.0463C8.12002 12.8501 8.19797 12.6619 8.33671 12.5232C8.47545 12.3844 8.66362 12.3065 8.85983 12.3065C9.05604 12.3065 9.24422 12.3844 9.38296 12.5232L9.90608 13.0463L10.9542 12L10.4311 11.4769C10.3624 11.4082 10.3079 11.3267 10.2707 11.2369C10.2335 11.1471 10.2144 11.0509 10.2144 10.9538C10.2144 10.8566 10.2335 10.7604 10.2707 10.6707C10.3079 10.5809 10.3624 10.4994 10.4311 10.4307C10.4998 10.362 10.5813 10.3075 10.6711 10.2703C10.7609 10.2331 10.8571 10.214 10.9542 10.214C11.0514 10.214 11.1476 10.2331 11.2373 10.2703C11.3271 10.3075 11.4086 10.362 11.4773 10.4307L12.0005 10.9538L13.0467 9.90706L12.5236 9.38394C12.3848 9.2452 12.3069 9.05702 12.3069 8.86081C12.3069 8.6646 12.3848 8.47643 12.5236 8.33769C12.6623 8.19895 12.8505 8.121 13.0467 8.121C13.2429 8.121 13.4311 8.19895 13.5698 8.33769L14.0934 8.85941ZM22.3397 9.35769C22.6823 6.80159 22.5272 3.7205 21.4022 2.59784C20.2772 1.47519 17.1984 1.31816 14.6423 1.66034C14.5247 1.67628 14.4005 1.69409 14.2716 1.71425L22.2872 9.72987C22.3059 9.59956 22.3237 9.47534 22.3397 9.35769ZM1.66124 14.6424C1.31858 17.1985 1.47374 20.2796 2.59874 21.4022C3.38343 22.1874 5.12577 22.5 6.97733 22.5C7.77359 22.4987 8.56891 22.445 9.35811 22.3392C9.47577 22.3233 9.59999 22.3055 9.7289 22.2853L1.71327 14.2697C1.69499 14.4005 1.67718 14.5247 1.66124 14.6424Z" fill="#A6A1B3"/>
</svg>
