<svg width="24" height="24" viewBox="0 0 24 24" fill="none" xmlns="http://www.w3.org/2000/svg">
<path fill-rule="evenodd" clip-rule="evenodd" d="M8.00662 2.29315C7.92419 1.98571 7.72301 1.72361 7.44733 1.56451C7.17165 1.4054 6.84406 1.36232 6.53662 1.44475C6.22918 1.52718 5.96708 1.72837 5.80797 2.00404C5.64887 2.27972 5.60579 2.60731 5.68822 2.91475L5.99902 4.07395C6.08145 4.38139 6.28263 4.6435 6.55831 4.8026C6.83399 4.96171 7.16158 5.00478 7.46902 4.92235C7.77646 4.83993 8.03856 4.63874 8.19767 4.36306C8.35677 4.08738 8.39985 3.75979 8.31742 3.45235L8.00662 2.29315ZM2.91502 5.68795C2.76253 5.64638 2.60333 5.63535 2.44656 5.65548C2.28979 5.67562 2.13854 5.72652 2.0015 5.80528C1.86446 5.88403 1.74433 5.98908 1.648 6.1144C1.55168 6.23971 1.48106 6.38282 1.4402 6.5355C1.39934 6.68819 1.38905 6.84744 1.40992 7.00412C1.43078 7.16079 1.48239 7.3118 1.56178 7.44847C1.64118 7.58514 1.74679 7.70478 1.87255 7.80052C1.99831 7.89626 2.14175 7.96621 2.29462 8.00635L3.45382 8.31715C3.76071 8.39774 4.08702 8.35351 4.36138 8.19414C4.63573 8.03476 4.83581 7.77322 4.91783 7.46671C4.99985 7.1602 4.95714 6.83369 4.79905 6.55859C4.64095 6.28349 4.38034 6.0822 4.07422 5.99875L2.91502 5.68795ZM13.4918 5.00515C13.6032 4.89366 13.6916 4.76132 13.7519 4.61568C13.8121 4.47003 13.8431 4.31395 13.8431 4.15633C13.843 3.99871 13.8119 3.84265 13.7515 3.69705C13.6912 3.55145 13.6027 3.41917 13.4912 3.30775C13.3797 3.19634 13.2474 3.10798 13.1017 3.04771C12.9561 2.98745 12.8 2.95646 12.6424 2.95651C12.4848 2.95657 12.3287 2.98767 12.1831 3.04804C12.0375 3.10841 11.9052 3.19686 11.7938 3.30835L10.9454 4.15675C10.8339 4.26825 10.7455 4.40061 10.6851 4.54628C10.6248 4.69195 10.5938 4.84808 10.5938 5.00575C10.5938 5.16343 10.6248 5.31956 10.6851 5.46523C10.7455 5.6109 10.8339 5.74326 10.9454 5.85475C11.0569 5.96625 11.1893 6.05469 11.3349 6.11503C11.4806 6.17536 11.6367 6.20642 11.7944 6.20642C11.9521 6.20642 12.1082 6.17536 12.2539 6.11503C12.3996 6.05469 12.5319 5.96625 12.6434 5.85475L13.4918 5.00515ZM5.00662 13.4916L5.85502 12.6432C6.08035 12.4181 6.20706 12.1128 6.20729 11.7944C6.20751 11.476 6.08123 11.1705 5.85622 10.9452C5.63121 10.7198 5.32591 10.5931 5.00747 10.5929C4.68903 10.5927 4.38355 10.7189 4.15822 10.944L3.30862 11.7924C3.08345 12.0175 2.95695 12.3229 2.95695 12.6414C2.95695 12.9598 3.08345 13.2652 3.30862 13.4904C3.53379 13.7155 3.83918 13.842 4.15762 13.842C4.47606 13.842 4.78145 13.7155 5.00662 13.4904V13.4916ZM8.84662 7.28635C8.62855 7.19906 8.38965 7.1777 8.15955 7.2249C7.92944 7.2721 7.71825 7.3858 7.55216 7.55189C7.38606 7.71799 7.27237 7.92918 7.22516 8.15928C7.17796 8.38938 7.19933 8.62828 7.28662 8.84635L12.0866 20.8464C12.1726 21.0611 12.3189 21.2465 12.5078 21.38C12.6967 21.5136 12.9201 21.5897 13.1513 21.5993C13.3825 21.6088 13.6114 21.5513 13.8107 21.4336C14.0099 21.316 14.1709 21.1433 14.2742 20.9364L15.9302 17.6256L19.5518 21.2496C19.777 21.4746 20.0823 21.6009 20.4006 21.6008C20.719 21.6007 21.0242 21.4741 21.2492 21.249C21.4742 21.0238 21.6006 20.7185 21.6005 20.4001C21.6004 20.0818 21.4738 19.7766 21.2486 19.5516L17.6258 15.9276L20.9378 14.2728C21.1444 14.1691 21.3167 14.0081 21.4339 13.8089C21.5512 13.6098 21.6085 13.381 21.5988 13.1501C21.5892 12.9192 21.5131 12.6959 21.3796 12.5072C21.2462 12.3185 21.0611 12.1724 20.8466 12.0864L8.84662 7.28635Z" fill="#A6A1B3"/>
</svg>
