<svg width="20" height="20" viewBox="0 0 20 20" fill="none" xmlns="http://www.w3.org/2000/svg">
<path d="M14.9977 13.1249C14.6609 13.1248 14.3277 13.1929 14.0181 13.3252C13.7084 13.4574 13.4288 13.6511 13.1961 13.8945L7.41484 10.6417C7.52683 10.2212 7.52683 9.77867 7.41484 9.35813L13.1961 6.10539C13.6171 6.54185 14.1827 6.80985 14.7871 6.85917C15.3915 6.9085 15.9932 6.73577 16.4794 6.37334C16.9655 6.01091 17.3029 5.48365 17.4282 4.89034C17.5536 4.29703 17.4583 3.67838 17.1602 3.15028C16.8622 2.62218 16.3818 2.22088 15.8091 2.02155C15.2364 1.82222 14.6106 1.83853 14.0491 2.06744C13.4875 2.29635 13.0287 2.72215 12.7586 3.26506C12.4885 3.80797 12.4256 4.43075 12.5816 5.01672L6.80039 8.26946C6.45505 7.90939 6.00989 7.66088 5.52216 7.5559C5.03443 7.45092 4.52644 7.49426 4.06355 7.68036C3.60066 7.86646 3.20404 8.1868 2.9247 8.60017C2.64536 9.01353 2.49609 9.50102 2.49609 9.99992C2.49609 10.4988 2.64536 10.9863 2.9247 11.3997C3.20404 11.8131 3.60066 12.1334 4.06355 12.3195C4.52644 12.5056 5.03443 12.5489 5.52216 12.4439C6.00989 12.339 6.45505 12.0905 6.80039 11.7304L12.5816 14.9831C12.4476 15.4878 12.4749 16.0217 12.6598 16.51C12.8446 16.9983 13.1777 17.4165 13.6124 17.7059C14.047 17.9953 14.5613 18.1413 15.0831 18.1235C15.605 18.1057 16.1081 17.9249 16.522 17.6066C16.9359 17.2883 17.2397 16.8483 17.3908 16.3486C17.542 15.8488 17.5328 15.3142 17.3647 14.8199C17.1966 14.3256 16.8779 13.8963 16.4534 13.5923C16.0288 13.2883 15.5198 13.1249 14.9977 13.1249Z" fill="currentColor"/>
</svg>
