<svg width="24" height="24" viewBox="0 0 24 24" fill="none" xmlns="http://www.w3.org/2000/svg">
<path d="M22.1813 6.45983C22.1806 5.87276 21.9505 5.30974 21.5413 4.89472C21.1322 4.47951 20.5773 4.24603 19.9987 4.24536H2.83931L2.325 3.72354C2.14036 3.54164 1.87468 3.47244 1.62653 3.54131C1.37839 3.61002 1.18448 3.80675 1.11659 4.0587C1.04871 4.31046 1.11708 4.57983 1.2962 4.7672L1.81051 5.28918V7.93618H15.6336C15.8936 7.93618 16.1338 8.07689 16.2637 8.30525C16.3936 8.53362 16.3936 8.81505 16.2637 9.04341C16.1338 9.27178 15.8936 9.41249 15.6336 9.41249H1.81051V10.8888C1.81213 11.4319 2.0109 11.9552 2.36867 12.359C2.72644 12.7628 3.21818 13.0189 3.75015 13.0784L2.12214 18.5851L2.12198 18.5849C1.99011 19.0319 2.07423 19.5158 2.34868 19.89C2.62329 20.2643 3.05609 20.4848 3.51598 20.4848H7.08933C7.40275 20.4861 7.70806 20.3843 7.95946 20.1945C8.21085 20.0047 8.39469 19.7373 8.48336 19.4323L9.26353 16.794H11.996C12.5746 16.7934 13.1296 16.5599 13.5386 16.1447C13.9478 15.7296 14.178 15.1666 14.1786 14.5796V13.1033H19.9989C20.5775 13.1026 21.1324 12.8691 21.5415 12.4539C21.9507 12.0388 22.1808 11.4758 22.1815 10.8888V7.93615C22.4415 7.93615 22.6816 7.79544 22.8116 7.56707C22.9415 7.3387 22.9415 7.05727 22.8116 6.82891C22.6816 6.60054 22.4415 6.45983 22.1815 6.45983H22.1813ZM12.7234 14.5796C12.7232 14.7753 12.6464 14.963 12.5101 15.1014C12.3737 15.2396 12.1888 15.3176 11.9958 15.3177H9.69987L10.1602 13.7608L10.754 14.3632C10.9388 14.5443 11.2039 14.6132 11.4518 14.5443C11.6994 14.4753 11.893 14.2789 11.961 14.0276C12.0289 13.7762 11.961 13.5071 11.7826 13.3196L11.5693 13.1033H12.7233L12.7234 14.5796Z" fill="#A6A1B3"/>
</svg>
