<svg width="24" height="24" viewBox="0 0 24 24" fill="none" xmlns="http://www.w3.org/2000/svg">
<path fill-rule="evenodd" clip-rule="evenodd" d="M14.115 1.33325C11.6498 1.33325 9.65137 3.3538 9.65137 5.84627C9.65137 7.92304 11.0388 9.67219 12.9277 10.1979V14.1952C12.6194 14.192 12.31 14.1903 11.9997 14.1903C9.79276 14.1903 7.63521 14.2774 5.56955 14.3608C5.04952 14.3818 4.53486 14.4026 4.02717 14.4216C2.987 14.4607 2.08848 15.1702 1.7742 16.1571C1.56506 16.8139 1.33301 17.598 1.33301 18.4285C1.33301 19.2589 1.56506 20.043 1.7742 20.6998C2.08848 21.6866 2.987 22.3961 4.02717 22.4353C4.535 22.4544 5.04933 22.4752 5.5695 22.4961C7.63518 22.5795 9.79273 22.6666 11.9997 22.6666C14.2066 22.6666 16.3642 22.5795 18.4299 22.4961C18.9499 22.475 19.4644 22.4544 19.9722 22.4353C21.0123 22.3961 21.9108 21.6866 22.2252 20.6998C22.4343 20.043 22.6663 19.2589 22.6663 18.4285C22.6663 17.598 22.4343 16.8139 22.2252 16.1571C21.9108 15.1702 21.0123 14.4607 19.9722 14.4216C19.4644 14.4026 18.9501 14.3818 18.4301 14.3608C17.4083 14.3195 16.3637 14.2774 15.3021 14.2453V10.198C17.1911 9.6724 18.5787 7.92317 18.5787 5.84627C18.5787 3.3538 16.5803 1.33325 14.115 1.33325ZM6.73553 12.6362C7.3912 12.6362 7.92273 12.0988 7.92273 11.4359C7.92273 10.773 7.3912 10.2356 6.73553 10.2356H4.44003C3.78434 10.2356 3.25282 10.773 3.25282 11.4359C3.25282 12.0988 3.78434 12.6362 4.44003 12.6362H6.73553Z" fill="#A6A1B3"/>
</svg>
