<svg width="24" height="24" viewBox="0 0 24 24" fill="none" xmlns="http://www.w3.org/2000/svg">
<path d="M15.4145 7.34961C15.125 7.34977 14.8446 7.45028 14.621 7.63402C14.3973 7.81775 14.2443 8.07335 14.188 8.35725C14.1317 8.64116 14.1755 8.93581 14.3121 9.19101C14.4486 9.4462 14.6695 9.64615 14.9369 9.75679C15.2044 9.86743 15.5019 9.88191 15.7789 9.79776C16.0558 9.71362 16.295 9.53606 16.4557 9.29533C16.6164 9.0546 16.6887 8.7656 16.6602 8.47757C16.6317 8.18954 16.5042 7.92029 16.2995 7.71571C16.1834 7.59937 16.0454 7.50713 15.8935 7.4443C15.7416 7.38147 15.5788 7.34929 15.4145 7.34961Z" fill="#A6A1B3"/>
<path d="M22.3802 2.34646C22.38 2.34506 22.38 2.34364 22.3802 2.34224C22.3406 2.16848 22.2531 2.00926 22.1278 1.88253C22.0025 1.75581 21.8443 1.66663 21.671 1.62505C20.2741 1.28427 18.0766 1.64755 15.6414 2.62255C13.1871 3.60693 10.8874 5.06005 9.33301 6.61724C8.83479 7.11281 8.37194 7.6427 7.94785 8.20302C6.90113 8.15614 5.9791 8.30521 5.20238 8.64411C2.49582 9.83521 1.72285 12.8835 1.51707 14.135C1.48729 14.3129 1.49895 14.4952 1.55114 14.6678C1.60333 14.8404 1.69464 14.9986 1.81796 15.1301C1.94129 15.2616 2.0933 15.363 2.26217 15.4261C2.43105 15.4893 2.61222 15.5127 2.7916 15.4944H2.79769L5.81269 15.1654C5.81644 15.2038 5.82066 15.239 5.82394 15.2713C5.86267 15.6387 6.02651 15.9816 6.288 16.2425L7.75941 17.7149C8.01997 17.9767 8.36281 18.1408 8.73019 18.1794L8.83097 18.1902L8.50285 21.2015V21.2075C8.48608 21.3697 8.50334 21.5336 8.55352 21.6887C8.6037 21.8439 8.68569 21.9868 8.79427 22.1085C8.90284 22.2301 9.0356 22.3277 9.18406 22.3951C9.33252 22.4625 9.49341 22.4982 9.65644 22.4999C9.72161 22.4999 9.78668 22.4946 9.85097 22.484C11.1096 22.2815 14.1564 21.5179 15.3443 18.7968C15.6803 18.0252 15.8289 17.1069 15.7872 16.0621C16.3501 15.6389 16.8819 15.176 17.3786 14.6769C18.9457 13.1179 20.4035 10.8369 21.3775 8.41817C22.3474 6.01067 22.7125 3.79677 22.3802 2.34646ZM17.3618 10.544C16.9766 10.9295 16.4857 11.1922 15.9513 11.2987C15.4168 11.4052 14.8628 11.3508 14.3592 11.1424C13.8557 10.934 13.4252 10.5809 13.1224 10.1278C12.8196 9.67472 12.6579 9.14198 12.6579 8.597C12.6579 8.05202 12.8196 7.51929 13.1224 7.0662C13.4252 6.6131 13.8557 6.26001 14.3592 6.05158C14.8628 5.84316 15.4168 5.78877 15.9513 5.8953C16.4857 6.00183 16.9766 6.26449 17.3618 6.65005C17.6199 6.90433 17.8249 7.20741 17.9649 7.54166C18.1048 7.87591 18.1769 8.23465 18.1769 8.597C18.1769 8.95936 18.1048 9.3181 17.9649 9.65235C17.8249 9.9866 17.6199 10.2897 17.3618 10.544Z" fill="#A6A1B3"/>
<path d="M7.59071 18.1143C7.40933 18.0918 7.22597 18.1363 7.07509 18.2395C6.77556 18.4443 6.47462 18.6468 6.17087 18.8442C5.55634 19.2435 4.82134 18.5423 5.1865 17.9067L5.75603 16.9223C5.83745 16.8032 5.88279 16.6631 5.88661 16.5189C5.89043 16.3746 5.85256 16.2324 5.77755 16.1091C5.70254 15.9859 5.59357 15.8869 5.46371 15.824C5.33385 15.7611 5.18861 15.737 5.0454 15.7546C4.41329 15.8346 3.82573 16.1225 3.37525 16.5731C3.20368 16.7451 2.68197 17.2673 2.40118 19.2571C2.32126 19.8287 2.27088 20.404 2.25025 20.9807C2.24768 21.0808 2.26518 21.1804 2.30172 21.2736C2.33827 21.3669 2.3931 21.4518 2.463 21.5235C2.53291 21.5952 2.61645 21.6522 2.70872 21.6911C2.80099 21.73 2.90012 21.75 3.00025 21.7499H3.019C3.59619 21.7295 4.17194 21.6794 4.744 21.5999C6.73478 21.3187 7.25697 20.7965 7.42853 20.6249C7.88119 20.1743 8.16843 19.5839 8.24368 18.9496C8.26778 18.7523 8.21254 18.5534 8.0901 18.3968C7.96766 18.2402 7.78804 18.1386 7.59071 18.1143Z" fill="#A6A1B3"/>
</svg>
